# xmcd
#
# Track frame offsets:
#	150
#	52641
#	67472
#	81231
#	114090
#	133883
#	156526
#	177853
#	202555
#	220479
#	240676
#	269390
#
# Disc length: 4191 seconds
#
# Revision: 0
# Processed by: cddbd v1.5.2PL0 Copyright (c) Steve Scherf et al.
# Submitted via: dBpowerAMP V4.0
#
DISCID=ac105d0c
DTITLE=Various Artist - Classic Funk
DYEAR=1900
DGENRE=Funk
TTITLE0=Creative Source - Who is he and what is he to you
TTITLE1=Fatback ban d- Wicki-Wacky
TTITLE2=The JBs - Gimme some more
TTITLE3=The O'Jays - For the love of money
TTITLE4=Ohio Players - Fire
TTITLE5=Curtis Mayfield - Pusherman
TTITLE6=Fred Wesley and the JBs - Blow your head
TTITLE7=Mandrill - Fencewalk
TTITLE8=Average White Band - Pick up the pieces
TTITLE9=The Blackbirds - Rock Creek Park
TTITLE10=Kool and the Gang - NT
TTITLE11=James Brown - Stone to the bone
EXTD=
EXTT0=
EXTT1=
EXTT2=
EXTT3=
EXTT4=
EXTT5=
EXTT6=
EXTT7=
EXTT8=
EXTT9=
EXTT10=
EXTT11=
PLAYORDER=
